Patient4_TMGait_0pt5_02_right_19_EMG.mot
version=1
nRows=13
nColumns=33
inDegrees=no
endheader
time	1LAddLong	2LGlutMax	3LGlutMed	4LIliopsoas	5LSemiMemb	6LBicFemLong	7LRecFem	8LVastMed	9LVastLat	10LGasMed	11LTibAnt	12lTibPost	13LPeroneusLong	14LSol	15LExtDigLong	16LFlexDigLong	17RAddLong	18RGlutMax	19RGlutMed	20RIliopsoas	21RSemiMemb	22RBicFemLong	23RRecFem	24RVastMed	25RVastLat	26RGasMed	27RTibAnt	28RTibPost	29RPeroneusLong	30RSol	31RExtDigLong	32RFlexDigLong
25.6	-0.037689	-0.2356	-0.054016	-0.002441	-0.020905	0.15854	0.10498	-0.007782	-0.24628	-0.048676	-0.007324	0.000916	-0.003815	-0.015564	-0.064392	-0.021667	-0.005035	0.38498	0.24124	-0.14053	-0.027466	-0.12222	0.045624	-0.043488	0.011139	-0.015717	-0.12024	-0.003662	-0.19073	-0.093384	-0.019684	-0.007019
25.601	-0.046539	-0.24048	-0.0914	0.010223	-0.039368	0.22186	0.1178	-0.002747	-0.35706	-0.009003	0.019989	0.00351	0.087738	0.03891	0.18768	-0.006561	0.031586	0.39673	-0.18814	-0.19836	-0.023499	-0.12909	0.010834	-0.041504	0.008087	0.007324	0.91049	-0.00061	0.076294	-0.27252	-0.016632	0.002289
25.602	-0.05127	-0.32928	-0.081024	0.007477	-0.04364	0.23789	0.056152	0.005798	-0.26276	-0.011597	-0.04425	0.002747	0.1741	0.080719	0.66513	-0.040436	0.068207	0.47516	0.075531	-0.21118	-0.016785	-0.10193	0.034485	-0.038605	-0.00061	0.040283	0.47058	0.001221	0.45288	-0.51987	-0.017853	0.005798
25.603	-0.056305	-0.37933	-0.029602	0.018158	-0.035553	0.052185	0.05249	0.010376	-0.16434	0.002594	-0.25284	0.006866	0.18402	0.12665	1.0397	-0.037842	0.066986	0.45807	0.12833	-0.1561	-0.018616	-0.097351	0.053864	-0.093231	-0.005341	0.029449	-0.8081	-0.003815	0.35904	-0.48431	-0.020142	0.003357
25.604	-0.045929	-0.39475	-0.085297	0.015717	-0.063477	0.043945	0.049744	0.011292	-0.097198	-0.007477	-0.29068	0.008698	0.27878	0.12405	0.40131	-0.048218	0.048218	0.44235	0.21362	0.080261	-0.015869	-0.066071	0.045929	-0.090485	0.014954	0.004425	-0.83466	-0.004425	-0.006409	-0.13947	-0.018005	-0.009308
25.605	-0.019226	-0.37766	-0.10239	0.011139	-0.063171	-0.13458	0.030975	0.010986	-0.003204	-0.022888	-0.10849	0.002899	0.23239	0.093079	-0.56534	-0.043488	0.018311	0.40283	-0.24963	0.16434	-0.009766	-0.04303	0.002594	-0.045471	0.027008	0	-0.95154	-0.007324	-0.002289	-0.11688	-0.022583	-0.010834
25.606	0.013428	-0.34698	-0.032349	-0.007782	-0.027313	-0.48859	0.025177	0.006561	0.016785	-0.012665	0.05127	0.00351	0.22903	0.075378	-0.19073	-0.022888	-0.001221	0.35873	-0.19486	0.31006	-0.014343	-0.045624	-0.069885	-0.036011	0.050049	-0.005188	-0.18158	-0.00824	-0.076447	-0.042267	-0.020447	-0.018005
25.607	0.03479	-0.32044	-0.016937	-0.005951	0.028687	-0.62653	0.012817	0.003052	0.14435	0.005493	0.20783	-0.003204	0.92895	0.12283	-0.61813	-0.033722	-0.002747	0.34439	0.28641	0.33997	-0.009766	-0.002136	-0.088501	-0.024109	0.065308	-0.007172	0.37766	-0.003204	-0.027313	0.12848	-0.016785	-0.008698
25.608	0.048523	-0.24384	0.079346	-0.007324	0.065765	-0.41168	-0.034027	-0.005951	0.29373	0.007324	0.27924	0.012512	1.5619	0.15106	-0.56702	-0.028381	0.01709	0.30655	0.098267	0.33936	-0.006714	0.015564	-0.13245	-0.009003	0.084229	-0.005798	0.3717	-0.003967	0.009155	0.21744	-0.016174	-0.010376
25.609	0.049133	-0.23987	0.10757	0.006104	0.2092	-0.022736	-0.04837	0.00885	0.41443	-0.021973	0.062561	0.006256	0.73807	0.14374	-0.401	-0.022583	-0.004272	0.24918	-0.076447	0.14374	-0.00412	0.014954	-0.11765	0.022125	0.098114	-0.003662	0.57434	-0.007782	-0.047455	0.13336	-0.0177	-0.008545
25.61	0.032501	-0.22293	0.005341	0.00946	0.1796	0.18707	-0.05127	0.010986	0.43289	-0.019531	-0.17136	0.006104	-0.83344	0.085602	-0.64102	-0.028992	-0.014343	0.18402	-0.077667	0.012817	0.001984	0.036163	-0.10788	0.028534	0.086823	-0.00946	1.1139	-0.008698	-0.26413	0.12314	-0.020599	-0.007935
25.611	0.012665	-0.15823	-0.007935	0.001373	0.072327	0.21347	-0.097351	0.007172	0.49072	-0.00885	-0.20676	0.004425	-1.367	0.053101	-0.51346	-0.0177	0.017395	0.13901	-0.063629	0.031281	-0.004425	0.043793	-0.10132	0.013885	0.10254	-0.012207	0.61905	-0.005798	-0.42099	0.20615	-0.014191	-0.010376
25.612	0.006104	-0.14725	0.080566	-0.019226	-0.006561	0.18616	-0.17563	0.006561	0.53711	-0.030823	-0.19302	0.002594	-0.64514	-0.037384	-0.41519	-0.024719	0.035706	0.086975	-0.011444	0.019226	0.002747	0.0383	-0.13229	0.041199	0.0914	-0.019379	-0.058441	-0.005951	-0.39002	0.38956	-0.010071	-0.015106
